<svg width="109" height="112" viewBox="0 0 109 112" fill="none" xmlns="http://www.w3.org/2000/svg">
<path d="M96.768 87.0268L100.224 94.7068L76.672 109.171C72.4907 110.28 68.48 111.005 64.64 111.347C60.8 111.773 56.6613 111.987 52.224 111.987C41.984 111.987 32.896 109.811 24.96 105.459C17.024 101.107 10.88 95.1335 6.528 87.5388C2.176 79.8588 0 71.1548 0 61.4268C0 51.4428 3.24267 42.2268 9.728 33.7788C16.2133 25.2455 24.2773 18.5468 33.92 13.6828C43.648 8.73349 52.864 6.25882 61.568 6.25882C66.8587 6.25882 73.088 6.89882 80.256 8.17883C87.424 9.45882 92.672 10.8242 96 12.2748V42.7388H83.968C76.4587 28.2322 66.5173 20.9788 54.144 20.9788C48.768 20.9788 43.8613 22.4722 39.424 25.4588C35.072 28.4455 31.616 32.5415 29.056 37.7468C26.496 42.9522 25.216 48.7975 25.216 55.2828C25.216 62.8775 26.4533 69.8748 28.928 76.2748C31.488 82.5895 35.328 87.6668 40.448 91.5068C45.568 95.2615 51.8827 97.1388 59.392 97.1388C59.7333 97.1388 61.312 97.1388 64.128 97.1388C66.944 97.1388 70.0587 96.8828 73.472 96.3708V70.7708L52.864 65.7788L57.088 57.4588H108.8V64.6268L96.768 74.8668V87.0268Z" fill="#F21B3F"/>
<path d="M96.768 80.768L100.224 88.448L76.672 102.912C72.4907 104.021 68.48 104.747 64.64 105.088C60.8 105.515 56.6613 105.728 52.224 105.728C41.984 105.728 32.896 103.552 24.96 99.2C17.024 94.848 10.88 88.8747 6.528 81.28C2.176 73.6 0 64.896 0 55.168C0 45.184 3.24267 35.968 9.728 27.52C16.2133 18.9867 24.2773 12.288 33.92 7.424C43.648 2.47467 52.864 0 61.568 0C66.8587 0 73.088 0.640002 80.256 1.92001C87.424 3.2 92.672 4.56534 96 6.016V36.48H83.968C76.4587 21.9733 66.5173 14.72 54.144 14.72C48.768 14.72 43.8613 16.2133 39.424 19.2C35.072 22.1867 31.616 26.2827 29.056 31.488C26.496 36.6933 25.216 42.5387 25.216 49.024C25.216 56.6187 26.4533 63.616 28.928 70.016C31.488 76.3307 35.328 81.408 40.448 85.248C45.568 89.0027 51.8827 90.88 59.392 90.88C59.7333 90.88 61.312 90.88 64.128 90.88C66.944 90.88 70.0587 90.624 73.472 90.112V64.512L52.864 59.52L57.088 51.2H108.8V58.368L96.768 68.608V80.768Z" fill="#08BDBD"/>
</svg>
